<svg width="150" height="66" viewBox="0 0 150 66" fill="none" xmlns="http://www.w3.org/2000/svg">
<path fill-rule="evenodd" clip-rule="evenodd" d="M72.7356 63.3154C112.086 63.3154 144.179 49.094 144.179 31.6572C144.179 14.2194 112.088 0 72.7356 0C33.3847 0 1.29199 14.2214 1.29199 31.6592C1.29199 49.096 33.3867 63.3174 72.7356 63.3174" fill="#8E9091"/>
<path fill-rule="evenodd" clip-rule="evenodd" d="M71.4436 63.3833C110.793 63.3833 142.887 49.1618 142.887 31.7251C142.887 14.2873 110.795 0.0678711 71.4436 0.0678711C32.0917 0.0678711 0 14.2893 0 31.7271C0 49.1638 32.0937 63.3853 71.4436 63.3853" fill="#E7E5E6"/>
<path fill-rule="evenodd" clip-rule="evenodd" d="M72.0911 63.3491C111.44 63.3491 143.534 49.1266 143.534 31.6899C143.534 14.2531 111.44 0.0336914 72.0911 0.0336914C32.7412 0.0336914 0.647461 14.2551 0.647461 31.6919C0.647461 49.1297 32.7412 63.3511 72.0911 63.3511" fill="#D4D1D2"/>
<path fill-rule="evenodd" clip-rule="evenodd" d="M73.3017 60.1164C108.622 60.1164 137.428 47.3511 137.428 31.6998C137.428 16.0485 108.622 3.2832 73.3017 3.2832C37.9805 3.2832 9.17188 16.0485 9.17188 31.6998C9.17188 47.3511 37.9785 60.1164 73.3017 60.1164Z" fill="#6B473A"/>
<path fill-rule="evenodd" clip-rule="evenodd" d="M72.0048 60.1832C107.325 60.1832 136.133 47.4189 136.133 31.7677C136.133 16.1164 107.328 3.35107 72.0048 3.35107C36.6826 3.35107 7.87695 16.1164 7.87695 31.7677C7.87695 47.4189 36.6846 60.1832 72.0048 60.1832Z" fill="#BF6E58"/>
<path fill-rule="evenodd" clip-rule="evenodd" d="M72.6523 60.1496C107.972 60.1496 136.782 47.3842 136.782 31.733C136.782 16.0817 107.972 3.31738 72.6523 3.31738C37.3321 3.31738 8.52246 16.0817 8.52246 31.733C8.52246 47.3842 37.3321 60.1496 72.6523 60.1496Z" fill="#8C120E"/>
<path fill-rule="evenodd" clip-rule="evenodd" d="M144.073 62.6008C144.073 63.489 145.4 63.9306 147.171 65.2634C146.729 63.9336 146.286 62.1582 145.402 61.27L144.073 62.6008Z" fill="#F89100"/>
<path fill-rule="evenodd" clip-rule="evenodd" d="M25.0125 50.0476L23.2432 50.4912C38.2861 58.478 65.7175 61.1416 83.8586 61.1416C91.3815 61.1416 98.4589 59.3672 105.539 58.9226C110.407 58.0344 119.696 55.8154 124.564 55.8154L128.988 55.3708V53.1528L122.352 49.603C114.831 44.2768 104.211 46.4958 98.9015 45.6096H97.5758V45.166H97.1322C91.3815 46.4958 85.6279 48.2732 79.8773 49.603C74.1257 50.9338 68.8156 52.2666 62.1788 53.1528C48.9052 54.9272 36.5168 53.1528 25.0125 50.0456" fill="#D09500"/>
<path fill-rule="evenodd" clip-rule="evenodd" d="M96.9072 45.2637H97.3498V45.7073H98.6766C103.987 46.5955 114.606 44.3775 122.126 49.7007L128.762 53.2505V55.4716L136.285 56.3598C137.172 53.6962 138.498 51.0336 138.055 47.9284V45.2637C137.172 44.3745 137.172 43.9329 136.729 43.0447C134.959 42.6001 134.516 43.0447 132.747 42.1565H132.304C130.091 42.6001 125.224 41.7119 122.571 41.7119C119.473 41.7119 116.377 41.7119 113.279 42.1565C107.969 43.0447 101.775 43.9309 96.9092 45.2637" fill="#F89100"/>
<path fill-rule="evenodd" clip-rule="evenodd" d="M136.727 59.0198C137.613 59.908 143.363 63.0132 144.69 63.4578L146.017 62.127C145.131 59.908 144.248 59.0198 143.804 56.8008L147.344 55.9126C147.786 54.5818 147.344 53.6936 148.669 54.5818C146.9 51.9192 142.919 50.1448 139.821 48.814C139.821 51.033 139.378 52.3638 138.494 54.1382C138.051 55.4679 138.051 58.1316 136.725 59.0198" fill="#F89100"/>
<path fill-rule="evenodd" clip-rule="evenodd" d="M128.763 55.471L124.339 55.9146C125.665 57.2454 128.32 56.8028 130.976 57.2454C132.745 57.689 134.957 59.0198 136.726 59.0198C138.053 58.1316 138.053 55.471 138.496 54.1382C139.382 52.3638 139.822 51.033 139.822 48.814L138.053 47.9258C138.496 51.033 137.167 53.6936 136.284 56.3572L128.763 55.471Z" fill="#9B5C15"/>
<path fill-rule="evenodd" clip-rule="evenodd" d="M147.345 55.9128L149.999 56.3574C148.674 54.582 147.787 53.2522 146.904 52.8076C145.575 51.9194 147.787 54.582 147.347 55.9128" fill="#F89100"/>
<path d="M86.949 54.8213C87.2754 54.787 87.5704 54.6748 87.8332 54.4879C88.0959 54.2999 88.3141 54.0635 88.4869 53.7815C88.6607 53.4996 88.7891 53.1884 88.8649 52.8438C88.9416 52.4982 88.9598 52.1557 88.9164 51.8111C88.8942 51.6373 88.8558 51.4979 88.7972 51.3897C88.7396 51.2806 88.6719 51.1927 88.593 51.1321C88.5142 51.0714 88.4314 51.031 88.3394 51.0078C88.2464 50.9855 88.1565 50.9785 88.0696 50.9835C87.9878 50.9876 87.8978 51.0037 87.8039 51.031C87.7099 51.0583 87.628 51.0896 87.5634 51.123C87.4482 51.7212 87.3431 52.3366 87.2511 52.9681C87.1582 53.5986 87.0571 54.217 86.949 54.8213ZM84.9189 56.5664C84.9978 55.9733 85.0746 55.4003 85.1483 54.8506C85.2231 54.2999 85.2989 53.7502 85.3828 53.2046C85.4656 52.6589 85.5515 52.1062 85.6414 51.5474C85.7314 50.9876 85.8385 50.3974 85.9577 49.779C86.178 49.6618 86.4417 49.5497 86.7489 49.4415C87.0571 49.3324 87.3471 49.2607 87.622 49.2202C87.9655 49.1707 88.305 49.1475 88.6425 49.1546C88.98 49.1616 89.2903 49.2223 89.5752 49.3395C89.8612 49.4567 90.1128 49.6416 90.3351 49.8963C90.5584 50.1509 90.7241 50.4985 90.8363 50.9381C90.9262 51.2968 90.9646 51.6717 90.9535 52.0567C90.9424 52.4427 90.8838 52.8256 90.7827 53.2025C90.6817 53.5784 90.5352 53.9392 90.3513 54.2847C90.1663 54.6293 89.9461 54.9345 89.6945 55.2002C89.3074 55.6065 88.8467 55.9237 88.3121 56.1521C87.7766 56.3795 87.2127 56.5331 86.6125 56.6099C86.2932 56.6503 85.989 56.6634 85.7021 56.6503C85.4141 56.6361 85.1534 56.6099 84.9189 56.5684" fill="#611D18"/>
<path d="M93.6126 51.7161C93.7662 51.6717 93.9411 51.6303 94.1371 51.5969C94.3321 51.5625 94.5302 51.5312 94.7302 51.4999C94.9303 51.4686 95.1233 51.4413 95.3102 51.4211C95.4972 51.4009 95.6659 51.3847 95.8094 51.3716C95.771 51.6242 95.7357 51.8536 95.7013 52.0658C95.668 52.278 95.6225 52.5104 95.5649 52.765C95.4275 52.7761 95.2587 52.7893 95.0657 52.8075C94.8717 52.8256 94.6716 52.8479 94.4695 52.8772C94.2674 52.9065 94.0694 52.9358 93.8804 52.9651C93.6915 52.9944 93.5278 53.0237 93.3903 53.0469C93.361 53.2207 93.3317 53.3895 93.3004 53.5542C93.2691 53.7189 93.2398 53.8897 93.2105 54.0615C93.361 54.0433 93.5389 54.016 93.743 53.9847C93.9481 53.9533 94.1593 53.917 94.3776 53.8806C94.5958 53.8452 94.8111 53.8048 95.0253 53.7593C95.2385 53.7139 95.4315 53.6734 95.6053 53.633C95.5305 53.9463 95.4497 54.2504 95.3618 54.5435C95.2749 54.8375 95.1759 55.1417 95.0607 55.4529C94.7504 55.5115 94.422 55.565 94.0765 55.6146C93.7299 55.6651 93.3883 55.7116 93.0508 55.7591C92.7133 55.8065 92.394 55.8449 92.0889 55.8813C91.7827 55.9167 91.524 55.946 91.3037 55.9733C91.3714 55.3943 91.4371 54.8193 91.4977 54.2464C91.5584 53.6734 91.625 53.0985 91.6948 52.5195C91.7645 51.9395 91.8453 51.3554 91.9332 50.7643C92.0211 50.1742 92.1222 49.5739 92.2374 48.9565C92.5567 48.8636 92.9073 48.7807 93.2873 48.7039C93.6672 48.6271 94.0532 48.5574 94.4473 48.4937C94.8404 48.4311 95.2274 48.3796 95.6144 48.3321C96.0004 48.2846 96.351 48.2482 96.6703 48.2148C96.5855 48.5432 96.5016 48.8777 96.4187 49.2203C96.3359 49.5628 96.2571 49.8993 96.1782 50.2328C96.0206 50.2459 95.8407 50.2661 95.6387 50.2914C95.4366 50.3156 95.2254 50.348 95.0071 50.3793C94.7888 50.4106 94.5756 50.447 94.3685 50.4834C94.1613 50.5187 93.9724 50.5571 93.8067 50.5975C93.7703 50.7784 93.7369 50.9613 93.7026 51.1503C93.6692 51.3392 93.6379 51.5272 93.6106 51.7121" fill="#611D18"/>
<path d="M96.5304 53.6366C96.6335 53.6437 96.7507 53.6487 96.8861 53.6508C97.0205 53.6528 97.1559 53.6508 97.2954 53.6417C97.4348 53.6326 97.5692 53.6215 97.7046 53.6053C97.839 53.5901 97.9623 53.5689 98.0724 53.5487C98.3341 53.4972 98.5382 53.4204 98.6868 53.3214C98.8353 53.2223 98.9252 53.1092 98.9495 52.9849C98.9748 52.8616 98.9313 52.7333 98.8151 52.5979C98.6979 52.4625 98.5049 52.3382 98.23 52.223C97.8481 52.0633 97.5449 51.8804 97.3176 51.6753C97.0902 51.4702 96.9397 51.1812 96.8608 50.8073C96.8204 50.6315 96.8113 50.4466 96.8386 50.2505C96.8659 50.0545 96.9124 49.8777 96.9821 49.72C97.0882 49.4543 97.2458 49.2148 97.455 49.0036C97.6632 48.7914 97.8996 48.6085 98.1674 48.4509C98.4352 48.2932 98.7161 48.1619 99.0152 48.0588C99.3143 47.9547 99.5972 47.8688 99.869 47.8102C100.19 47.7385 100.497 47.689 100.789 47.6657C101.081 47.6435 101.391 47.6253 101.722 47.6162L101.479 49.6321C101.369 49.619 101.234 49.617 101.073 49.619C100.91 49.621 100.746 49.6392 100.577 49.6665C100.409 49.6927 100.247 49.7311 100.089 49.7766C99.9317 49.8221 99.8064 49.8777 99.7053 49.9413C99.5477 50.0515 99.4103 50.1939 99.2961 50.3677C99.1809 50.5415 99.1385 50.7285 99.1698 50.9336C99.186 51.0488 99.2415 51.1458 99.3456 51.2216C99.4487 51.2984 99.5659 51.3681 99.7003 51.4318C99.8357 51.4944 99.9701 51.5449 100.105 51.5894C100.24 51.6349 100.35 51.6793 100.431 51.7268C100.541 51.7925 100.654 51.8552 100.768 51.9188C100.884 51.9815 100.991 52.0542 101.086 52.1351C101.18 52.2169 101.258 52.3129 101.317 52.4241C101.376 52.5342 101.405 52.6625 101.403 52.8121C101.403 52.9151 101.387 53.0233 101.357 53.1385C101.328 53.2537 101.29 53.3577 101.245 53.4547C101.034 53.8377 100.739 54.151 100.368 54.3965C99.9974 54.6431 99.5861 54.832 99.1425 54.9654C98.6999 55.0978 98.2442 55.1857 97.7763 55.2291C97.3085 55.2716 96.872 55.2786 96.4678 55.2514L96.5304 53.6366Z" fill="#611D18"/>
<path d="M103.807 52.7042C104.134 52.6698 104.428 52.5577 104.692 52.3697C104.954 52.1828 105.173 51.9463 105.345 51.6644C105.518 51.3825 105.646 51.0713 105.723 50.7267C105.8 50.3811 105.817 50.0386 105.775 49.693C105.753 49.5202 105.714 49.3797 105.656 49.2716C105.597 49.1635 105.53 49.0776 105.451 49.0149C105.373 48.9513 105.29 48.9129 105.197 48.8907C105.105 48.8684 105.015 48.8614 104.927 48.8664C104.844 48.8704 104.756 48.8866 104.662 48.9129C104.567 48.9402 104.486 48.9715 104.422 49.0058C104.307 49.6051 104.201 50.2184 104.109 50.85C104.017 51.4815 103.916 52.0999 103.807 52.7042ZM101.777 54.4473C101.856 53.8541 101.933 53.2812 102.007 52.7305C102.081 52.1808 102.159 51.6301 102.24 51.0844C102.322 50.5387 102.409 49.987 102.502 49.4272C102.594 48.8684 102.699 48.2773 102.818 47.6599C103.038 47.5427 103.302 47.4295 103.609 47.3214C103.918 47.2133 104.208 47.1405 104.482 47.1001C104.824 47.0506 105.165 47.0304 105.503 47.0354C105.84 47.0395 106.151 47.1021 106.436 47.2203C106.722 47.3376 106.973 47.5225 107.196 47.7771C107.419 48.0318 107.585 48.3794 107.697 48.8189C107.787 49.1766 107.825 49.5515 107.814 49.9365C107.803 50.3225 107.746 50.7055 107.643 51.0824C107.54 51.4593 107.399 51.82 107.212 52.1646C107.025 52.5102 106.806 52.8143 106.555 53.0801C106.166 53.4863 105.707 53.8046 105.173 54.032C104.637 54.2593 104.071 54.4129 103.471 54.4897C103.152 54.5301 102.847 54.5433 102.562 54.5301C102.277 54.517 102.014 54.4897 101.779 54.4493" fill="#611D18"/>
<path d="M110.421 49.6033C110.574 49.5589 110.749 49.5175 110.946 49.4841C111.141 49.4498 111.339 49.4164 111.539 49.3851C111.739 49.3538 111.932 49.3285 112.121 49.3063C112.31 49.283 112.476 49.2699 112.62 49.2568C112.581 49.5084 112.546 49.7388 112.512 49.951C112.478 50.1632 112.433 50.3946 112.375 50.6502C112.236 50.6613 112.069 50.6745 111.876 50.6926C111.682 50.7108 111.482 50.7331 111.28 50.7624C111.078 50.7917 110.882 50.821 110.691 50.8503C110.5 50.8796 110.338 50.9089 110.201 50.9321C110.171 51.1049 110.142 51.2747 110.113 51.4394C110.084 51.6041 110.052 51.7749 110.023 51.9466C110.174 51.9285 110.351 51.9012 110.556 51.8698C110.761 51.8385 110.974 51.8042 111.19 51.7658C111.406 51.7274 111.625 51.689 111.838 51.6445C112.051 51.599 112.245 51.5606 112.418 51.5182C112.341 51.8314 112.26 52.1356 112.175 52.4286C112.089 52.7217 111.988 53.0268 111.873 53.3381C111.563 53.3967 111.236 53.4502 110.889 53.4997C110.542 53.5493 110.201 53.5967 109.863 53.6442C109.527 53.6917 109.204 53.7301 108.901 53.7665C108.598 53.8019 108.337 53.8312 108.117 53.8585C108.184 53.2795 108.25 52.7045 108.31 52.1316C108.371 51.5586 108.439 50.9837 108.508 50.4036C108.578 49.8246 108.659 49.2406 108.747 48.6495C108.834 48.0593 108.935 47.4591 109.048 46.8417C109.367 46.7488 109.718 46.6659 110.098 46.5891C110.478 46.5123 110.864 46.4426 111.258 46.3789C111.651 46.3163 112.038 46.2637 112.425 46.2193C112.811 46.1738 113.161 46.1354 113.481 46.1021C113.394 46.4305 113.312 46.7649 113.229 47.1075C113.146 47.45 113.068 47.7865 112.989 48.12C112.831 48.1331 112.651 48.1533 112.449 48.1786C112.247 48.2028 112.036 48.2352 111.818 48.2665C111.599 48.2978 111.386 48.3362 111.179 48.3726C110.972 48.409 110.783 48.4464 110.617 48.4878C110.581 48.6676 110.547 48.8505 110.513 49.0395C110.48 49.2295 110.45 49.4164 110.421 49.6013" fill="#611D18"/>
<path d="M116.778 46.8745C116.888 46.7007 116.994 46.5411 117.095 46.3966C117.196 46.2521 117.295 46.1146 117.394 45.9863C117.493 45.858 117.596 45.7286 117.702 45.6054C117.807 45.4811 117.919 45.3528 118.039 45.2214C118.288 45.1901 118.556 45.1719 118.844 45.1719C119.132 45.1719 119.399 45.186 119.646 45.2173C119.496 45.7792 119.347 46.3562 119.204 46.9463C119.059 47.5374 118.921 48.1326 118.785 48.7257C118.651 49.3189 118.52 49.907 118.396 50.489C118.273 51.071 118.158 51.6349 118.048 52.1755C117.908 52.1694 117.78 52.1644 117.668 52.1583C117.556 52.1512 117.443 52.1492 117.333 52.1492C117.223 52.1492 117.113 52.1533 116.996 52.1603C116.879 52.1664 116.746 52.1785 116.596 52.1896C116.667 51.8147 116.746 51.3954 116.829 50.9286C116.913 50.4617 117.003 49.9868 117.09 49.5038C117.178 49.0208 117.268 48.5499 117.358 48.0921C117.448 47.6344 117.539 47.2332 117.632 46.8836C117.545 46.8836 117.466 46.8836 117.396 46.8796C117.326 46.8745 117.262 46.8745 117.198 46.8745C117.135 46.8745 117.07 46.8745 117.005 46.8745C116.939 46.8745 116.863 46.8745 116.78 46.8745" fill="#611D18"/>
<path d="M122.378 46.9001C122.259 46.893 122.142 46.9092 122.027 46.9496C121.913 46.99 121.809 47.0466 121.714 47.1234C121.621 47.1992 121.542 47.2942 121.474 47.4043C121.406 47.5154 121.364 47.6306 121.342 47.7519C121.314 47.8802 121.31 48.0025 121.331 48.1147C121.351 48.2278 121.389 48.3289 121.447 48.4198C121.505 48.5098 121.58 48.5815 121.67 48.6401C121.76 48.6987 121.861 48.731 121.975 48.7371C122.094 48.7442 122.212 48.728 122.326 48.6876C122.441 48.6472 122.544 48.5906 122.639 48.5118C122.733 48.433 122.814 48.343 122.884 48.2369C122.953 48.1308 123.001 48.0136 123.028 47.8833C123.061 47.7539 123.066 47.6327 123.043 47.5154C123.021 47.3982 122.981 47.2992 122.922 47.2113C122.863 47.1234 122.787 47.0526 122.691 46.9991C122.594 46.9445 122.491 46.9112 122.378 46.897M120.547 51.6442C120.876 51.4118 121.175 51.1501 121.443 50.8591C121.71 50.5681 121.929 50.269 122.096 49.9598C121.931 50.0315 121.735 50.0679 121.512 50.0719C121.29 50.077 121.083 50.0386 120.892 49.9618C120.692 49.885 120.512 49.7728 120.356 49.6263C120.202 49.4788 120.081 49.301 119.993 49.0958C119.866 48.825 119.804 48.4986 119.806 48.1147C119.808 47.7317 119.871 47.3598 119.993 46.9991C120.101 46.6515 120.244 46.3544 120.426 46.1109C120.608 45.8674 120.813 45.6663 121.043 45.5107C121.272 45.355 121.521 45.2419 121.789 45.1701C122.056 45.0984 122.333 45.062 122.616 45.062C122.819 45.062 123.041 45.1024 123.284 45.1863C123.526 45.2692 123.75 45.4116 123.954 45.6147C124.159 45.8168 124.325 46.0816 124.451 46.41C124.577 46.7394 124.622 47.1476 124.585 47.6367C124.557 48.0116 124.475 48.4057 124.348 48.821C124.219 49.2353 124.028 49.6556 123.779 50.077C123.529 50.4984 123.212 50.9106 122.83 51.3098C122.447 51.7089 121.991 52.0858 121.459 52.4334C121.325 52.2869 121.18 52.1424 121.024 52.005C120.87 51.8676 120.71 51.7453 120.55 51.6442" fill="#611D18"/>
<path d="M124.985 47.7045C125.04 47.4549 125.09 47.2285 125.13 47.0325C125.17 46.8365 125.215 46.6475 125.264 46.4666C125.314 46.2868 125.368 46.1039 125.431 45.921C125.494 45.7381 125.571 45.536 125.668 45.3167C126.367 45.2066 127.046 45.152 127.704 45.1571C128.362 45.1611 129.021 45.1864 129.682 45.2288C129.045 46.3514 128.48 47.5044 127.988 48.6897C127.495 49.876 127.034 51.0582 126.602 52.2395C126.468 52.2253 126.319 52.2213 126.155 52.2213C125.991 52.2213 125.827 52.2233 125.662 52.2253C125.499 52.2284 125.332 52.2344 125.168 52.2415C125.004 52.2486 124.855 52.2546 124.721 52.2617C124.901 51.8626 125.103 51.4281 125.33 50.9562C125.557 50.4853 125.791 50.0094 126.04 49.5314C126.29 49.0535 126.542 48.5755 126.8 48.1036C127.059 47.6327 127.316 47.1972 127.567 46.7981C127.36 46.7849 127.151 46.7849 126.938 46.794C126.723 46.8031 126.519 46.8324 126.323 46.8769C126.218 47.0062 126.126 47.1437 126.042 47.2871C125.96 47.4316 125.89 47.5691 125.833 47.6984C125.539 47.7247 125.255 47.7247 124.985 47.7004" fill="#611D18"/>
<path d="M128.419 52.0634C128.468 51.8825 128.511 51.7299 128.551 51.6036C128.592 51.4773 128.632 51.3571 128.673 51.2398C128.713 51.1226 128.758 51.0014 128.808 50.873C128.857 50.7437 128.918 50.5931 128.988 50.4193C129.235 50.5547 129.489 50.6315 129.75 50.6538C130.01 50.676 130.247 50.6518 130.458 50.5841C130.669 50.5163 130.838 50.4032 130.966 50.2476C131.095 50.0919 131.15 49.903 131.13 49.6777C131.117 49.517 131.065 49.3846 130.975 49.2826C130.886 49.1815 130.777 49.1098 130.647 49.0714C130.517 49.033 130.377 49.0259 130.227 49.0481C130.076 49.0714 129.937 49.1249 129.806 49.2088C129.702 49.2017 129.595 49.1906 129.48 49.1744C129.366 49.1593 129.26 49.134 129.163 49.1027C129.224 48.8319 129.291 48.5409 129.368 48.2276C129.445 47.9144 129.525 47.5961 129.615 47.2697C129.705 46.9423 129.799 46.62 129.9 46.2926C130.001 45.9662 130.111 45.6529 130.229 45.3508C130.458 45.3124 130.715 45.278 131.003 45.2508C131.29 45.2245 131.583 45.2063 131.877 45.1901C132.171 45.175 132.459 45.1699 132.736 45.1699C133.013 45.1699 133.253 45.175 133.455 45.1881C133.381 45.4134 133.32 45.5984 133.275 45.7449C133.23 45.8914 133.189 46.0228 133.154 46.142C133.118 46.2612 133.084 46.3835 133.048 46.5048C133.013 46.627 132.972 46.7756 132.923 46.9494C132.616 46.9312 132.299 46.9261 131.971 46.9383C131.643 46.9494 131.317 46.9696 130.996 47.0029C130.937 47.1697 130.886 47.3414 130.843 47.5152C130.8 47.689 130.764 47.8537 130.737 48.0094C130.831 47.9952 130.913 47.9861 130.983 47.9801C131.051 47.973 131.115 47.9679 131.174 47.9639C131.231 47.9588 131.288 47.9619 131.344 47.9639C131.4 47.9659 131.466 47.975 131.537 47.9881C131.796 48.0265 132.009 48.1175 132.176 48.2569C132.343 48.3964 132.468 48.5752 132.556 48.7824C132.644 48.9895 132.69 49.2199 132.704 49.4675C132.718 49.7161 132.697 49.9656 132.646 50.2162C132.594 50.4668 132.513 50.7104 132.4 50.9468C132.288 51.1843 132.156 51.3843 131.998 51.5511C131.778 51.7764 131.519 51.9522 131.22 52.0745C130.921 52.1958 130.609 52.2756 130.28 52.3089C129.952 52.3423 129.628 52.3362 129.307 52.2907C128.986 52.2463 128.689 52.1695 128.419 52.0614" fill="#611D18"/>
<path d="M32.5352 15.3633C35.4312 15.3633 37.7988 16.009 39.6368 17.2994C41.4739 18.5877 42.4419 20.5834 42.5389 23.2854L37.244 23.5037C37.0743 22.286 36.6297 21.3493 35.9102 20.6946C35.1928 20.0377 34.0438 19.7083 32.4625 19.7083C31.3681 19.7083 30.3576 19.9044 29.431 20.2944C28.5064 20.6824 28.0447 21.3514 28.0447 22.2992C28.0447 23.1025 28.4579 23.7411 29.2855 24.215C30.1151 24.69 31.5874 25.171 33.7033 25.658C35.6758 26.1188 37.3006 26.6119 38.5778 27.1373C39.8551 27.6608 40.9555 28.4995 41.8801 29.6554C42.8067 30.8114 43.2705 32.3746 43.2705 34.3441C43.2705 35.3444 43.0381 36.4044 42.5753 37.525C42.1145 38.6436 41.3597 39.6046 40.3118 40.4069C39.5327 41.0374 38.5051 41.5245 37.2279 41.866C35.9506 42.2056 34.4723 42.3753 32.7939 42.3753C29.5301 42.3753 27.0231 41.6397 25.2719 40.1684C23.5197 38.6972 22.4486 36.4529 22.0586 33.4346L27.1716 32.9577C27.7294 36.2943 29.6271 37.9616 32.8666 37.9616C34.5693 37.9616 35.8516 37.6038 36.7145 36.8864C37.5795 36.167 38.012 35.3202 38.012 34.3441C38.012 33.6387 37.7988 33.0789 37.3734 32.6667C36.9469 32.2524 36.278 31.8937 35.3645 31.5915C34.4531 31.2874 33.0243 30.9034 31.0761 30.4396C28.6429 29.904 26.6886 29.0037 25.2153 27.7396C23.7441 26.4735 23.0084 24.7809 23.0084 22.663C23.0084 21.5211 23.3005 20.3954 23.8855 19.288C24.4696 18.1805 25.474 17.2498 26.8968 16.495C28.3195 15.7412 30.199 15.3633 32.5352 15.3633Z" fill="black" fill-opacity="0.4"/>
<path d="M65.8653 16.4232C67.1799 16.981 68.2631 17.8692 69.1149 19.0868C69.9658 20.3055 70.3922 21.8869 70.3922 23.832C70.3922 25.7317 69.9718 27.3081 69.1311 28.5611C68.2924 29.8141 67.2284 30.7093 65.938 31.2449C64.6224 31.8027 62.5287 32.0816 59.6569 32.0816H55.6433V41.9398H50.3848V15.8008H59.475C61.1564 15.8008 62.4953 15.8442 63.4927 15.9301C64.489 16.014 65.2802 16.1787 65.8653 16.4232ZM64.9518 23.9048C64.9518 22.3477 64.1848 21.2402 62.6519 20.5824C62.0911 20.3398 60.9109 20.2186 59.1112 20.2186H55.6433V27.6638H59.1112C60.9109 27.6638 62.3336 27.4152 63.3795 26.916C64.4273 26.4178 64.9518 25.4144 64.9518 23.9048Z" fill="black" fill-opacity="0.4"/>
<path d="M96.7453 20.2191H82.6189V26.0232H95.7591V30.441H82.6189V37.5225H97.2223V41.9403H77.3604V15.8013H96.7453V20.2191Z" fill="black" fill-opacity="0.4"/>
<path d="M123.173 20.2181H115.433V41.9393H110.175V20.2181H102.438V15.8003H123.173V20.2181Z" fill="black" fill-opacity="0.4"/>
<path d="M30.9249 13.75C33.8209 13.75 36.1884 14.3957 38.0265 15.6861C39.8635 16.9744 40.8316 18.9701 40.9286 21.6721L35.6337 21.8904C35.4639 20.6728 35.0193 19.7361 34.2998 19.0813C33.5824 18.4245 32.4335 18.095 30.8521 18.095C29.7578 18.095 28.7473 18.2911 27.8207 18.6811C26.8961 19.0691 26.4343 19.7381 26.4343 20.6859C26.4343 21.4892 26.8476 22.1279 27.6752 22.6018C28.5048 23.0767 29.977 23.5577 32.093 24.0447C34.0654 24.5055 35.6903 24.9986 36.9675 25.5241C38.2447 26.0475 39.3451 26.8862 40.2697 28.0422C41.1963 29.1982 41.6601 30.7614 41.6601 32.7308C41.6601 33.7311 41.4277 34.7911 40.9649 35.9118C40.5042 37.0303 39.7493 37.9913 38.7015 38.7936C37.9224 39.4242 36.8947 39.9112 35.6175 40.2528C34.3403 40.5923 32.8619 40.762 31.1835 40.762C27.9197 40.762 25.4127 40.0264 23.6616 38.5552C21.9094 37.0839 20.8383 34.8396 20.4482 31.8213L25.5612 31.3444C26.119 34.681 28.0167 36.3483 31.2563 36.3483C32.9589 36.3483 34.2412 35.9906 35.1042 35.2731C35.9691 34.5537 36.4016 33.7069 36.4016 32.7308C36.4016 32.0255 36.1884 31.4657 35.763 31.0534C35.3366 30.6391 34.6677 30.2804 33.7542 29.9782C32.8427 29.6741 31.4139 29.2901 29.4657 28.8263C27.0325 28.2907 25.0782 27.3904 23.605 26.1263C22.1337 24.8602 21.3981 23.1676 21.3981 21.0497C21.3981 19.9078 21.6901 18.7822 22.2752 17.6747C22.8592 16.5672 23.8636 15.6366 25.2864 14.8817C26.7091 14.1279 28.5886 13.75 30.9249 13.75Z" fill="white"/>
<path d="M64.251 14.809C65.5656 15.3668 66.6489 16.255 67.5007 17.4726C68.3515 18.6912 68.7779 20.2726 68.7779 22.2178C68.7779 24.1175 68.3576 25.6938 67.5169 26.9468C66.6782 28.1998 65.6141 29.0951 64.3237 29.6306C63.0081 30.1884 60.9144 30.4673 58.0426 30.4673H54.029V40.3255H48.7705V14.1865H57.8607C59.5422 14.1865 60.8811 14.23 61.8784 14.3159C62.8747 14.3997 63.6659 14.5644 64.251 14.809ZM63.3375 22.2905C63.3375 20.7334 62.5706 19.6259 61.0377 18.9681C60.4769 18.7256 59.2966 18.6043 57.497 18.6043H54.029V26.0495H57.497C59.2966 26.0495 60.7194 25.8009 61.7652 25.3018C62.8131 24.8036 63.3375 23.8002 63.3375 22.2905Z" fill="white"/>
<path d="M95.132 18.6043H81.0056V24.4085H94.1458V28.8263H81.0056V35.9077H95.609V40.3255H75.7471V14.1865H95.132V18.6043Z" fill="white"/>
<path d="M121.559 18.6043H113.819V40.3255H108.56V18.6043H100.824V14.1865H121.559V18.6043Z" fill="white"/>
</svg>
