<?xml version="1.0" encoding="UTF-8"?>
<svg id="Layer_1" xmlns="http://www.w3.org/2000/svg" version="1.1" xmlns:xlink="http://www.w3.org/1999/xlink" viewBox="0 0 36 36">
  <!-- Generator: Adobe Illustrator 29.5.1, SVG Export Plug-In . SVG Version: 2.1.0 Build 141)  -->
  <defs>
    <style>
      .st0 {
        fill: #fcb720;
      }

      .st1 {
        fill: none;
      }

      .st2 {
        fill: #212121;
      }

      .st3 {
        clip-path: url(#clippath);
      }
    </style>
    <clipPath id="clippath">
      <rect class="st1" x="6" y="6" width="24" height="24"/>
    </clipPath>
  </defs>
  <circle class="st0" cx="18" cy="18" r="18"/>
  <g class="st3">
    <path class="st2" d="M18,13.35c-2.55,0-4.62,2.07-4.62,4.62s2.07,4.62,4.62,4.62,4.62-2.07,4.62-4.62-2.07-4.62-4.62-4.62ZM18,20.98c-1.66,0-3-1.34-3.01-3,0-1.66,1.34-3,3-3.01h0c1.66,0,3,1.35,3,3.01,0,1.66-1.34,3-3,3Z"/>
    <circle class="st2" cx="22.81" cy="13.18" r="1.08"/>
    <path class="st2" d="M26.53,12.09c-.47-1.21-1.42-2.16-2.63-2.63-.7-.26-1.44-.4-2.19-.42-.96-.04-1.27-.05-3.71-.05s-2.76,0-3.71.05c-.75.01-1.49.16-2.18.42-1.21.47-2.17,1.42-2.63,2.63-.26.7-.4,1.44-.42,2.19-.04.96-.06,1.27-.06,3.71s0,2.75.06,3.71c.02.75.16,1.49.42,2.19.47,1.21,1.42,2.16,2.63,2.63.7.27,1.44.43,2.18.45.96.04,1.27.06,3.71.06s2.76,0,3.71-.06c.75-.02,1.49-.16,2.19-.42,1.21-.47,2.16-1.42,2.63-2.63.26-.7.4-1.44.42-2.19.04-.96.06-1.27.06-3.71s0-2.75-.06-3.71c-.01-.76-.15-1.51-.42-2.22ZM25.32,21.62c0,.58-.11,1.15-.31,1.69-.3.79-.93,1.41-1.71,1.71-.53.2-1.1.3-1.67.31-.95.04-1.22.06-3.65.06s-2.69,0-3.65-.06c-.57,0-1.13-.11-1.67-.31-.79-.3-1.41-.92-1.72-1.71-.2-.53-.3-1.1-.31-1.67-.04-.95-.05-1.22-.05-3.65s0-2.69.05-3.65c0-.58.11-1.15.31-1.69.3-.79.93-1.41,1.72-1.71.53-.2,1.1-.3,1.67-.31.95-.04,1.22-.05,3.65-.05s2.69,0,3.65.05c.57,0,1.14.11,1.67.31.79.3,1.41.93,1.71,1.71.2.53.3,1.1.31,1.67.04.95.05,1.22.05,3.65s0,2.7-.04,3.65h-.01Z"/>
  </g>
</svg>